<mxfile host="app.diagrams.net" modified="2023-01-24T12:29:24.631Z" agent="5.0 (Windows NT 10.0; Win64; x64) AppleWebKit/537.36 (KHTML, like Gecko) Chrome/109.0.0.0 Safari/537.36" etag="oPqtySYjma_5VrlrzT9F" version="20.8.10" type="github">
  <diagram name="Page-1" id="g_svoJ3WIR0ThaaJfSX0">
    <mxGraphModel dx="1434" dy="806" grid="1" gridSize="10" guides="1" tooltips="1" connect="1" arrows="1" fold="1" page="1" pageScale="1" pageWidth="850" pageHeight="1100" math="0" shadow="0">
      <root>
        <mxCell id="0" />
        <mxCell id="1" parent="0" />
        <mxCell id="vtIXAiy6yxHpcTjXfamn-8" value="" style="edgeStyle=orthogonalEdgeStyle;rounded=0;orthogonalLoop=1;jettySize=auto;html=1;" edge="1" parent="1" source="vtIXAiy6yxHpcTjXfamn-1">
          <mxGeometry relative="1" as="geometry">
            <mxPoint x="170" y="170" as="targetPoint" />
          </mxGeometry>
        </mxCell>
        <mxCell id="vtIXAiy6yxHpcTjXfamn-1" value="start" style="ellipse;whiteSpace=wrap;html=1;" vertex="1" parent="1">
          <mxGeometry x="110" y="40" width="120" height="90" as="geometry" />
        </mxCell>
        <mxCell id="vtIXAiy6yxHpcTjXfamn-7" value="" style="ellipse;whiteSpace=wrap;html=1;" vertex="1" parent="1">
          <mxGeometry x="120" y="310" width="120" height="80" as="geometry" />
        </mxCell>
        <mxCell id="vtIXAiy6yxHpcTjXfamn-10" value="" style="edgeStyle=orthogonalEdgeStyle;rounded=0;orthogonalLoop=1;jettySize=auto;html=1;" edge="1" parent="1" source="vtIXAiy6yxHpcTjXfamn-9" target="vtIXAiy6yxHpcTjXfamn-7">
          <mxGeometry relative="1" as="geometry" />
        </mxCell>
        <mxCell id="vtIXAiy6yxHpcTjXfamn-9" value="" style="rounded=0;whiteSpace=wrap;html=1;" vertex="1" parent="1">
          <mxGeometry x="110" y="180" width="120" height="60" as="geometry" />
        </mxCell>
      </root>
    </mxGraphModel>
  </diagram>
</mxfile>
